<mxfile host="Electron" agent="Mozilla/5.0 (Windows NT 10.0; Win64; x64) AppleWebKit/537.36 (KHTML, like Gecko) draw.io/25.0.2 Chrome/128.0.6613.186 Electron/32.2.5 Safari/537.36" version="25.0.2">
  <diagram name="Seite-1" id="Z7mFPT0-UZtydEo8EjYu">
    <mxGraphModel dx="2074" dy="1196" grid="1" gridSize="10" guides="1" tooltips="1" connect="1" arrows="1" fold="1" page="1" pageScale="1" pageWidth="827" pageHeight="1169" math="0" shadow="0">
      <root>
        <mxCell id="0" />
        <mxCell id="1" parent="0" />
        <mxCell id="DYgm9E52cmsQ21_e-iDY-1" value="MCU" style="rounded=1;whiteSpace=wrap;html=1;" vertex="1" parent="1">
          <mxGeometry width="120" height="60" as="geometry" />
        </mxCell>
        <mxCell id="DYgm9E52cmsQ21_e-iDY-2" value="" style="shape=flexArrow;endArrow=classic;startArrow=classic;html=1;rounded=0;entryX=0.5;entryY=1;entryDx=0;entryDy=0;" edge="1" parent="1" target="DYgm9E52cmsQ21_e-iDY-1">
          <mxGeometry width="100" height="100" relative="1" as="geometry">
            <mxPoint x="60" y="130" as="sourcePoint" />
            <mxPoint x="166" y="310" as="targetPoint" />
          </mxGeometry>
        </mxCell>
        <mxCell id="DYgm9E52cmsQ21_e-iDY-9" value="DMA" style="edgeLabel;html=1;align=center;verticalAlign=middle;resizable=0;points=[];" vertex="1" connectable="0" parent="DYgm9E52cmsQ21_e-iDY-2">
          <mxGeometry y="7" relative="1" as="geometry">
            <mxPoint as="offset" />
          </mxGeometry>
        </mxCell>
        <mxCell id="DYgm9E52cmsQ21_e-iDY-3" value="&lt;div&gt;EMAC&lt;/div&gt;&lt;div&gt;Module&lt;/div&gt;" style="rounded=1;whiteSpace=wrap;html=1;" vertex="1" parent="1">
          <mxGeometry y="130" width="120" height="60" as="geometry" />
        </mxCell>
        <mxCell id="DYgm9E52cmsQ21_e-iDY-4" value="Ethernet&lt;div&gt;PHY&lt;/div&gt;" style="rounded=1;whiteSpace=wrap;html=1;" vertex="1" parent="1">
          <mxGeometry y="240" width="120" height="60" as="geometry" />
        </mxCell>
        <mxCell id="DYgm9E52cmsQ21_e-iDY-5" value="" style="endArrow=classic;startArrow=classic;html=1;rounded=0;entryX=0.75;entryY=0;entryDx=0;entryDy=0;exitX=0.75;exitY=1;exitDx=0;exitDy=0;" edge="1" parent="1" source="DYgm9E52cmsQ21_e-iDY-3" target="DYgm9E52cmsQ21_e-iDY-4">
          <mxGeometry width="50" height="50" relative="1" as="geometry">
            <mxPoint x="96" y="190" as="sourcePoint" />
            <mxPoint x="96" y="220" as="targetPoint" />
          </mxGeometry>
        </mxCell>
        <mxCell id="DYgm9E52cmsQ21_e-iDY-6" value="MII" style="edgeLabel;html=1;align=center;verticalAlign=middle;resizable=0;points=[];" vertex="1" connectable="0" parent="DYgm9E52cmsQ21_e-iDY-5">
          <mxGeometry y="1" relative="1" as="geometry">
            <mxPoint as="offset" />
          </mxGeometry>
        </mxCell>
        <mxCell id="DYgm9E52cmsQ21_e-iDY-7" value="" style="endArrow=classic;startArrow=classic;html=1;rounded=0;entryX=0.25;entryY=1;entryDx=0;entryDy=0;exitX=0.25;exitY=0;exitDx=0;exitDy=0;" edge="1" parent="1" source="DYgm9E52cmsQ21_e-iDY-4" target="DYgm9E52cmsQ21_e-iDY-3">
          <mxGeometry width="50" height="50" relative="1" as="geometry">
            <mxPoint x="96" y="180" as="sourcePoint" />
            <mxPoint x="146" y="130" as="targetPoint" />
            <Array as="points" />
          </mxGeometry>
        </mxCell>
        <mxCell id="DYgm9E52cmsQ21_e-iDY-8" value="MDIO" style="edgeLabel;html=1;align=center;verticalAlign=middle;resizable=0;points=[];" vertex="1" connectable="0" parent="DYgm9E52cmsQ21_e-iDY-7">
          <mxGeometry x="-0.12" relative="1" as="geometry">
            <mxPoint as="offset" />
          </mxGeometry>
        </mxCell>
      </root>
    </mxGraphModel>
  </diagram>
</mxfile>
